<svg viewBox="0 0 640 360" xmlns="http://www.w3.org/2000/svg" font-family="Helvetica, Arial, sans-serif" fill="#333333">
  <text x="340" y="26" text-anchor="middle" font-size="16" font-weight="bold">SAT Math Scores by Country of Origin</text>
  <line x1="110" y1="60" x2="110" y2="300" stroke="#333333" stroke-width="1.5"/>
  <g stroke="#333333" stroke-width="1.5">
    <line x1="104" y1="300" x2="110" y2="300"/><line x1="104" y1="265.7" x2="110" y2="265.7"/>
    <line x1="104" y1="231.4" x2="110" y2="231.4"/><line x1="104" y1="197.1" x2="110" y2="197.1"/>
    <line x1="104" y1="162.9" x2="110" y2="162.9"/><line x1="104" y1="128.6" x2="110" y2="128.6"/>
    <line x1="104" y1="94.3" x2="110" y2="94.3"/><line x1="104" y1="60" x2="110" y2="60"/>
  </g>
  <g font-size="13" text-anchor="end">
    <text x="98" y="305">450</text><text x="98" y="270">500</text><text x="98" y="236">550</text>
    <text x="98" y="202">600</text><text x="98" y="168">650</text><text x="98" y="133">700</text>
    <text x="98" y="99">750</text><text x="98" y="65">800</text>
  </g>
  <text x="42" y="180" font-size="15" text-anchor="middle" transform="rotate(-90 42 180)">SAT Math score</text>
  <!-- US -->
  <line x1="230" y1="279.4" x2="230" y2="245.1" stroke="#333333" stroke-width="2"/>
  <line x1="205" y1="279.4" x2="255" y2="279.4" stroke="#333333" stroke-width="2"/>
  <rect x="180" y="183.4" width="100" height="61.7" fill="#7cb2e8" fill-opacity="0.55" stroke="#2b6cb0" stroke-width="2"/>
  <line x1="180" y1="217.7" x2="280" y2="217.7" stroke="#2b6cb0" stroke-width="3"/>
  <line x1="230" y1="183.4" x2="230" y2="128.6" stroke="#333333" stroke-width="2"/>
  <line x1="205" y1="128.6" x2="255" y2="128.6" stroke="#333333" stroke-width="2"/>
  <text x="230" y="330" text-anchor="middle" font-size="15" font-weight="bold">U.S.</text>
  <!-- Other -->
  <line x1="450" y1="231.4" x2="450" y2="162.9" stroke="#333333" stroke-width="2"/>
  <line x1="425" y1="231.4" x2="475" y2="231.4" stroke="#333333" stroke-width="2"/>
  <rect x="400" y="108" width="100" height="54.9" fill="#2f855a" fill-opacity="0.35" stroke="#2f855a" stroke-width="2"/>
  <line x1="400" y1="128.6" x2="500" y2="128.6" stroke="#2f855a" stroke-width="3"/>
  <line x1="450" y1="108" x2="450" y2="73.7" stroke="#333333" stroke-width="2"/>
  <line x1="425" y1="73.7" x2="475" y2="73.7" stroke="#333333" stroke-width="2"/>
  <text x="450" y="330" text-anchor="middle" font-size="15" font-weight="bold">Other country</text>
</svg>
