<svg viewBox="0 0 640 310" xmlns="http://www.w3.org/2000/svg" font-family="Helvetica, Arial, sans-serif" fill="#333333">
  <text x="320" y="24" text-anchor="middle" font-size="16" font-weight="bold">P(10 &#60; X &#60; 12) = shaded area</text>
  <polygon points="285,240 285,81.2 302.5,65.5 320,60 337.5,65.5 355,81.2 355,240" fill="#2b6cb0" fill-opacity="0.55"/>
  <path d="M 110 238 L 127.5 235.9 L 145 232.1 L 162.5 225.7 L 180 215.6 L 197.5 201.1 L 215 181.6 L 232.5 157.6 L 250 130.8 L 267.5 104.1 L 285 81.2 L 302.5 65.5 L 320 60 L 337.5 65.5 L 355 81.2 L 372.5 104.1 L 390 130.8 L 407.5 157.6 L 425 181.6 L 442.5 201.1 L 460 215.6 L 477.5 225.7 L 495 232.1 L 512.5 235.9 L 530 238" fill="none" stroke="#2b6cb0" stroke-width="2.5"/>
  <line x1="90" y1="240" x2="570" y2="240" stroke="#333333" stroke-width="1.5"/>
  <g stroke="#c53030" stroke-width="2">
    <line x1="285" y1="240" x2="285" y2="248"/>
    <line x1="355" y1="240" x2="355" y2="248"/>
  </g>
  <g font-size="13" text-anchor="middle">
    <text x="180" y="258">7</text><text x="250" y="258">9</text><text x="285" y="262" font-weight="bold" fill="#c53030">10</text>
    <text x="320" y="258">11</text><text x="355" y="262" font-weight="bold" fill="#c53030">12</text>
    <text x="390" y="258">13</text><text x="460" y="258">15</text>
  </g>
  <text x="330" y="288" font-size="15" text-anchor="middle">X = male foot length (inches)</text>
</svg>
